<?xml version="1.0" standalone="no"?>
<!DOCTYPE svg PUBLIC "-//W3C//DTD SVG 20010904//EN"
 "http://www.w3.org/TR/2001/REC-SVG-20010904/DTD/svg10.dtd">
<svg version="1.0" xmlns="http://www.w3.org/2000/svg"
 width="412.000000pt" height="412.000000pt" viewBox="0 0 412.000000 412.000000"
 preserveAspectRatio="xMidYMid meet">
<metadata>
Created by potrace 1.14, written by Peter Selinger 2001-2017
</metadata>
<g transform="translate(0.000000,412.000000) scale(0.100000,-0.100000)"
fill="#000000" stroke="none">
<path d="M2776 3888 c-14 -13 -179 -203 -366 -423 l-341 -400 -324 -5 -325 -5
-27 -27 c-25 -26 -28 -35 -31 -128 l-4 -100 -528 0 c-502 0 -531 -1 -593 -20
-81 -25 -163 -96 -201 -172 l-26 -52 0 -876 0 -876 26 -52 c33 -67 119 -146
182 -166 46 -16 49 -19 61 -65 27 -106 114 -204 231 -260 71 -34 80 -36 180
-36 97 0 110 2 172 32 113 53 196 144 234 257 l16 46 949 0 c895 0 950 -1 956
-17 53 -158 151 -260 292 -303 228 -71 464 56 540 291 10 30 20 39 67 58 67
28 141 99 174 166 l25 50 0 875 0 875 -24 50 c-33 66 -100 131 -169 163 l-57
27 -512 3 -511 3 -4 99 c-3 93 -5 101 -31 127 l-27 28 -240 5 -240 5 310 363
c279 326 310 366 310 398 0 74 -88 112 -144 62z m1080 -1289 c26 -12 53 -36
66 -57 l23 -37 3 -497 3 -498 -1686 0 c-1189 0 -1692 -3 -1707 -11 -26 -14
-48 -68 -48 -119 l0 -40 -139 0 c-125 0 -141 -2 -165 -21 l-26 -20 0 601 c0
646 -1 627 52 677 12 12 34 26 48 32 16 6 639 10 1779 10 l1755 1 42 -21z
m-3066 -1720 c60 -27 98 -64 126 -124 43 -91 25 -205 -44 -279 -64 -68 -194
-96 -280 -61 -49 21 -110 80 -133 130 -23 50 -25 151 -4 203 21 49 80 110 130
133 55 25 147 25 205 -2z m2761 -7 c233 -122 147 -472 -117 -472 -162 0 -280
147 -245 305 36 161 216 243 362 167z"/>
<path d="M1950 2463 c-8 -3 -25 -15 -37 -26 -23 -20 -23 -24 -23 -259 l0 -238
-239 0 -239 0 -26 -31 c-33 -38 -33 -79 -2 -116 l24 -28 288 -3 c319 -3 337
-1 360 54 21 51 20 553 -1 599 -21 43 -64 63 -105 48z"/>
<path d="M2789 2455 c-43 -24 -49 -60 -49 -296 l0 -219 -232 0 c-244 -1 -253
-2 -276 -47 -19 -34 -14 -69 12 -100 l24 -28 295 -3 294 -3 32 26 31 27 0 302
0 303 -23 21 c-30 29 -75 36 -108 17z"/>
<path d="M3651 2456 c-47 -26 -50 -46 -51 -288 l0 -228 -235 0 -236 0 -24 -25
c-38 -37 -35 -95 6 -129 l31 -26 290 0 290 0 29 29 29 29 0 296 c0 292 0 295
-22 320 -28 31 -74 41 -107 22z"/>
<path d="M882 2437 c-22 -23 -22 -28 -22 -345 l0 -322 -275 0 -276 0 -24 -25
c-17 -16 -25 -35 -25 -59 0 -94 6 -96 384 -96 184 0 326 4 341 10 53 20 56 46
53 445 l-3 363 -24 26 c-33 35 -98 36 -129 3z"/>
</g>
</svg>
